<mxfile host="app.diagrams.net" modified="2022-11-17T00:06:19.338Z" agent="5.0 (Macintosh; Intel Mac OS X 10_15_7) AppleWebKit/537.36 (KHTML, like Gecko) Chrome/107.0.0.0 Safari/537.36" etag="A5Bu6273VGN6wqZPKcP4" version="20.5.1" type="github">
  <diagram id="3K8ZOCHqWucn-XVY-pM3" name="Page-1">
    <mxGraphModel dx="1281" dy="1154" grid="1" gridSize="10" guides="1" tooltips="1" connect="1" arrows="1" fold="1" page="1" pageScale="1" pageWidth="850" pageHeight="1100" math="0" shadow="0">
      <root>
        <mxCell id="0" />
        <mxCell id="1" parent="0" />
        <mxCell id="9l7FFyi-YviBv7_dyPtq-42" value="" style="endArrow=none;html=1;rounded=0;exitX=0;exitY=0.5;exitDx=0;exitDy=0;" parent="1" source="dbgy21hbuP7iEMYif0pP-51" target="9l7FFyi-YviBv7_dyPtq-41" edge="1">
          <mxGeometry width="50" height="50" relative="1" as="geometry">
            <mxPoint x="150.32565789473688" y="630" as="sourcePoint" />
            <mxPoint x="291" y="809.0586510263929" as="targetPoint" />
            <Array as="points" />
          </mxGeometry>
        </mxCell>
        <mxCell id="9l7FFyi-YviBv7_dyPtq-44" value="" style="endArrow=none;html=1;rounded=0;exitX=0;exitY=0.5;exitDx=0;exitDy=0;" parent="1" target="9l7FFyi-YviBv7_dyPtq-41" edge="1">
          <mxGeometry width="50" height="50" relative="1" as="geometry">
            <mxPoint x="51.799999999999955" y="178" as="sourcePoint" />
            <mxPoint x="127.30121037463982" y="842.0799999999999" as="targetPoint" />
            <Array as="points">
              <mxPoint x="58" y="640" />
            </Array>
          </mxGeometry>
        </mxCell>
        <mxCell id="dbgy21hbuP7iEMYif0pP-51" value="" style="rounded=1;whiteSpace=wrap;html=1;fontColor=#FFFFFF;" parent="1" vertex="1">
          <mxGeometry x="60" y="250" width="370" height="98" as="geometry" />
        </mxCell>
        <mxCell id="dbgy21hbuP7iEMYif0pP-50" value="" style="rounded=1;whiteSpace=wrap;html=1;fontColor=#FFFFFF;" parent="1" vertex="1">
          <mxGeometry x="15" y="13" width="415" height="98" as="geometry" />
        </mxCell>
        <mxCell id="dbgy21hbuP7iEMYif0pP-49" value="" style="rounded=1;whiteSpace=wrap;html=1;fontColor=#FFFFFF;" parent="1" vertex="1">
          <mxGeometry x="43.8" y="129" width="386.2" height="98" as="geometry" />
        </mxCell>
        <mxCell id="6U1nSSz8ILKlPygahHpY-38" value="" style="ellipse;shape=cloud;whiteSpace=wrap;html=1;fontFamily=Verdana;strokeColor=default;fillColor=#FFFFFF;" parent="1" vertex="1">
          <mxGeometry x="540" y="435" width="280" height="260" as="geometry" />
        </mxCell>
        <mxCell id="6U1nSSz8ILKlPygahHpY-8" value="" style="rounded=0;whiteSpace=wrap;html=1;fontFamily=Verdana;strokeColor=default;" parent="1" vertex="1">
          <mxGeometry x="20" y="870" width="550" height="210" as="geometry" />
        </mxCell>
        <mxCell id="6U1nSSz8ILKlPygahHpY-34" value="" style="endArrow=none;html=1;rounded=0;startArrow=none;dashed=1;entryX=0.5;entryY=0;entryDx=0;entryDy=0;" parent="1" target="6U1nSSz8ILKlPygahHpY-33" edge="1">
          <mxGeometry width="50" height="50" relative="1" as="geometry">
            <mxPoint x="310" y="940" as="sourcePoint" />
            <mxPoint x="241.8499999999999" y="1020" as="targetPoint" />
            <Array as="points" />
          </mxGeometry>
        </mxCell>
        <mxCell id="9l7FFyi-YviBv7_dyPtq-11" value="" style="outlineConnect=0;dashed=0;verticalLabelPosition=bottom;verticalAlign=top;align=center;html=1;shape=mxgraph.aws3.management_console;fillColor=#F58534;gradientColor=none;" parent="1" vertex="1">
          <mxGeometry x="534.9" y="860" width="50" height="47.5" as="geometry" />
        </mxCell>
        <mxCell id="9l7FFyi-YviBv7_dyPtq-15" value="" style="shape=image;imageAspect=0;aspect=fixed;verticalLabelPosition=bottom;verticalAlign=top;image=https://external-content.duckduckgo.com/iu/?u=https%3A%2F%2Fxavki.blog%2Fwp-content%2Fuploads%2F2018%2F09%2Fansible_logo.png&amp;f=1&amp;nofb=1&amp;ipt=53a4e5368f563a361f3b038ef0567034583f57c1f499c3ad77b1c6a9f5cdfccb&amp;ipo=images;" parent="1" vertex="1">
          <mxGeometry x="113.36999999999996" y="867.0000000000001" width="63.66" height="63.66" as="geometry" />
        </mxCell>
        <mxCell id="9l7FFyi-YviBv7_dyPtq-20" value="" style="shape=image;imageAspect=0;aspect=fixed;verticalLabelPosition=bottom;verticalAlign=top;image=https://external-content.duckduckgo.com/iu/?u=https%3A%2F%2Fwww.vaisulweb.com%2Fwp-content%2Fuploads%2F2019%2F02%2Fazure_logo_794_new.png&amp;f=1&amp;nofb=1&amp;ipt=e7d5a95f5fe3158e6b289130da23c2a273bc27a8122730d06b9f98f9f66bd86d&amp;ipo=images;" parent="1" vertex="1">
          <mxGeometry x="46" y="128.5" width="41" height="41" as="geometry" />
        </mxCell>
        <mxCell id="9l7FFyi-YviBv7_dyPtq-22" value="" style="shape=image;imageAspect=0;aspect=fixed;verticalLabelPosition=bottom;verticalAlign=top;image=https://external-content.duckduckgo.com/iu/?u=https%3A%2F%2Fupload.wikimedia.org%2Fwikipedia%2Fcommons%2Fthumb%2F5%2F5c%2FAWS_Simple_Icons_AWS_Cloud.svg%2F1024px-AWS_Simple_Icons_AWS_Cloud.svg.png&amp;f=1&amp;nofb=1&amp;ipt=5e7d440169165dafa4e61f6b48588cefa960dabff0af8bd40b4ba6cd1df2f0f5&amp;ipo=images;" parent="1" vertex="1">
          <mxGeometry x="64.05" y="254" width="46.84" height="29" as="geometry" />
        </mxCell>
        <mxCell id="9l7FFyi-YviBv7_dyPtq-30" value="" style="dashed=0;outlineConnect=0;html=1;align=center;labelPosition=center;verticalLabelPosition=bottom;verticalAlign=top;shape=mxgraph.webicons.apple;fillColor=#807E7E;gradientColor=#1B1C1C;strokeColor=default;" parent="1" vertex="1">
          <mxGeometry x="502.79999999999995" y="1030.37" width="47" height="45.12" as="geometry" />
        </mxCell>
        <mxCell id="9l7FFyi-YviBv7_dyPtq-38" value="" style="shape=image;imageAspect=0;aspect=fixed;verticalLabelPosition=bottom;verticalAlign=top;strokeColor=default;image=https://external-content.duckduckgo.com/iu/?u=https%3A%2F%2Fwiki.installgentoo.com%2Fimages%2Fthumb%2F0%2F0a%2FFreebsd.png%2F300px-Freebsd.png&amp;f=1&amp;nofb=1&amp;ipt=339b96472451b9a5fe57f60c79c8e5480aa4cab04d9d587de3d5e7bbbeb2b45c&amp;ipo=images;" parent="1" vertex="1">
          <mxGeometry x="448.65999999999997" y="1031.49" width="45.52" height="44" as="geometry" />
        </mxCell>
        <mxCell id="9l7FFyi-YviBv7_dyPtq-41" value="" style="sketch=0;pointerEvents=1;shadow=0;dashed=0;html=1;strokeColor=none;fillColor=#505050;labelPosition=center;verticalLabelPosition=bottom;verticalAlign=top;outlineConnect=0;align=center;shape=mxgraph.office.communications.exchange_active_sync;fillColor=#2072B8;" parent="1" vertex="1">
          <mxGeometry x="106.66000000000005" y="842.08" width="39" height="40" as="geometry" />
        </mxCell>
        <mxCell id="9l7FFyi-YviBv7_dyPtq-37" value="" style="outlineConnect=0;dashed=0;verticalLabelPosition=bottom;verticalAlign=top;align=center;html=1;shape=mxgraph.aws3.vpn_connection;fillColor=#F58534;gradientColor=none;strokeColor=default;" parent="1" vertex="1">
          <mxGeometry x="84.05000000000001" y="630" width="30" height="20" as="geometry" />
        </mxCell>
        <mxCell id="9l7FFyi-YviBv7_dyPtq-43" value="" style="outlineConnect=0;dashed=0;verticalLabelPosition=bottom;verticalAlign=top;align=center;html=1;shape=mxgraph.aws3.vpn_connection;fillColor=#F58534;gradientColor=none;strokeColor=default;" parent="1" vertex="1">
          <mxGeometry x="44.05" y="630" width="30" height="20" as="geometry" />
        </mxCell>
        <mxCell id="9l7FFyi-YviBv7_dyPtq-19" value="" style="shape=image;imageAspect=0;aspect=fixed;verticalLabelPosition=bottom;verticalAlign=top;image=https://external-content.duckduckgo.com/iu/?u=https%3A%2F%2Fwww.gruntwork.io%2Fassets%2Fimg%2Fgcp-logo%402x.png&amp;f=1&amp;nofb=1&amp;ipt=9574a8a0789f6ade89c0a30a3e21288ad5bb48cb9e9ffe6173dadeceabadf204&amp;ipo=images;" parent="1" vertex="1">
          <mxGeometry x="8" y="7" width="60" height="50" as="geometry" />
        </mxCell>
        <mxCell id="6U1nSSz8ILKlPygahHpY-9" value="" style="sketch=0;aspect=fixed;pointerEvents=1;shadow=0;dashed=0;html=1;strokeColor=none;labelPosition=center;verticalLabelPosition=bottom;verticalAlign=top;align=center;fillColor=#00188D;shape=mxgraph.mscae.enterprise.windows_server;fontFamily=Verdana;" parent="1" vertex="1">
          <mxGeometry x="399.15999999999997" y="1025.49" width="39" height="50" as="geometry" />
        </mxCell>
        <mxCell id="9l7FFyi-YviBv7_dyPtq-49" value="" style="endArrow=none;html=1;rounded=0;startArrow=none;exitX=1;exitY=0.5;exitDx=0;exitDy=0;" parent="1" source="9l7FFyi-YviBv7_dyPtq-18" target="9l7FFyi-YviBv7_dyPtq-47" edge="1">
          <mxGeometry width="50" height="50" relative="1" as="geometry">
            <mxPoint x="590" y="770" as="sourcePoint" />
            <mxPoint x="301" y="809.3925233644859" as="targetPoint" />
            <Array as="points" />
          </mxGeometry>
        </mxCell>
        <mxCell id="6U1nSSz8ILKlPygahHpY-12" value="" style="shape=image;imageAspect=0;aspect=fixed;verticalLabelPosition=bottom;verticalAlign=top;fontFamily=Verdana;strokeColor=default;image=https://external-content.duckduckgo.com/iu/?u=http%3A%2F%2Fih1.redbubble.net%2Fimage.91645459.8807%2Fsticker%2C375x360.u4.png&amp;f=1&amp;nofb=1&amp;ipt=feb9e363e12430aa4f1a3bd15fce0da351807082b14958ce4e799390f70dbf4b&amp;ipo=images;" parent="1" vertex="1">
          <mxGeometry x="21" y="916.68" width="90" height="90" as="geometry" />
        </mxCell>
        <mxCell id="6U1nSSz8ILKlPygahHpY-13" value="" style="shape=image;imageAspect=0;aspect=fixed;verticalLabelPosition=bottom;verticalAlign=top;fontFamily=Verdana;strokeColor=default;image=https://external-content.duckduckgo.com/iu/?u=https%3A%2F%2Fynet.bayern%2Fjavax.faces.resource%2Fsmarthome%2Flogos%2Fgrafana.png.html%3Bjsessionid%3Db4ca95bb29633f81f4db9c6d9322%3Fln%3Dimg&amp;f=1&amp;nofb=1&amp;ipt=b72e8d11d6930dc6a39151f9b6e679a2c2d0325150894c2f5a98b99f8f498f9e&amp;ipo=images;" parent="1" vertex="1">
          <mxGeometry x="34.129999999999995" y="1000" width="58.75" height="60" as="geometry" />
        </mxCell>
        <mxCell id="6U1nSSz8ILKlPygahHpY-14" value="" style="endArrow=none;html=1;rounded=0;startArrow=none;exitX=0.364;exitY=0.455;exitDx=0;exitDy=0;exitPerimeter=0;dashed=1;" parent="1" source="9l7FFyi-YviBv7_dyPtq-24" target="6U1nSSz8ILKlPygahHpY-12" edge="1">
          <mxGeometry width="50" height="50" relative="1" as="geometry">
            <mxPoint x="492.97079365079367" y="770" as="sourcePoint" />
            <mxPoint x="705.336507936508" y="500" as="targetPoint" />
            <Array as="points" />
          </mxGeometry>
        </mxCell>
        <mxCell id="6U1nSSz8ILKlPygahHpY-15" value="" style="endArrow=none;html=1;rounded=0;startArrow=none;dashed=1;" parent="1" target="6U1nSSz8ILKlPygahHpY-13" edge="1">
          <mxGeometry width="50" height="50" relative="1" as="geometry">
            <mxPoint x="310" y="930" as="sourcePoint" />
            <mxPoint x="140" y="933.2576221378717" as="targetPoint" />
            <Array as="points" />
          </mxGeometry>
        </mxCell>
        <mxCell id="6U1nSSz8ILKlPygahHpY-21" value="" style="shape=image;imageAspect=0;aspect=fixed;verticalLabelPosition=bottom;verticalAlign=top;fontFamily=Verdana;strokeColor=default;image=https://external-content.duckduckgo.com/iu/?u=https%3A%2F%2Fcdn.freebiesupply.com%2Flogos%2Flarge%2F2x%2Fubuntu-icon-logo-png-transparent.png&amp;f=1&amp;nofb=1&amp;ipt=9aec932b07b4c54c36c28ff28f61d9e446ae4e70880df83b3f0d16d4d3a6bed2&amp;ipo=images;" parent="1" vertex="1">
          <mxGeometry x="170.00000000000003" y="1017.3" width="54.8" height="54.6" as="geometry" />
        </mxCell>
        <mxCell id="6U1nSSz8ILKlPygahHpY-22" value="" style="shape=image;imageAspect=0;aspect=fixed;verticalLabelPosition=bottom;verticalAlign=top;fontFamily=Verdana;strokeColor=default;image=https://external-content.duckduckgo.com/iu/?u=https%3A%2F%2Fwww.htpcguides.com%2Fwp-content%2Fuploads%2F2016%2F02%2Fnginx-square.png&amp;f=1&amp;nofb=1&amp;ipt=c499d4931de4884aa11a81d7797545d025bb3561adc972b12d9e8038d0c2cb78&amp;ipo=images;" parent="1" vertex="1">
          <mxGeometry x="100" y="1019.88" width="52.33" height="49.45" as="geometry" />
        </mxCell>
        <mxCell id="6U1nSSz8ILKlPygahHpY-24" value="" style="endArrow=none;html=1;rounded=0;startArrow=none;dashed=1;entryX=0.5;entryY=0;entryDx=0;entryDy=0;" parent="1" target="6U1nSSz8ILKlPygahHpY-22" edge="1">
          <mxGeometry width="50" height="50" relative="1" as="geometry">
            <mxPoint x="310" y="930" as="sourcePoint" />
            <mxPoint x="120" y="992.316076294278" as="targetPoint" />
            <Array as="points" />
          </mxGeometry>
        </mxCell>
        <mxCell id="6U1nSSz8ILKlPygahHpY-25" value="" style="endArrow=none;html=1;rounded=0;startArrow=none;dashed=1;entryX=0.75;entryY=0;entryDx=0;entryDy=0;" parent="1" target="6U1nSSz8ILKlPygahHpY-21" edge="1">
          <mxGeometry width="50" height="50" relative="1" as="geometry">
            <mxPoint x="310" y="930" as="sourcePoint" />
            <mxPoint x="130" y="1002.316076294278" as="targetPoint" />
            <Array as="points" />
          </mxGeometry>
        </mxCell>
        <mxCell id="6U1nSSz8ILKlPygahHpY-26" value="" style="ellipse;whiteSpace=wrap;html=1;aspect=fixed;fontFamily=Verdana;strokeColor=default;fillColor=#99FFCC;" parent="1" vertex="1">
          <mxGeometry x="272" y="882.08" width="102.92" height="102.92" as="geometry" />
        </mxCell>
        <mxCell id="9l7FFyi-YviBv7_dyPtq-24" value="" style="shape=image;imageAspect=0;aspect=fixed;verticalLabelPosition=bottom;verticalAlign=top;image=https://external-content.duckduckgo.com/iu/?u=https%3A%2F%2Fdigitalilusion.com%2Fstatic%2Fimg%2Fdocker-logo.png&amp;f=1&amp;nofb=1&amp;ipt=e68343f0d3f433ae545996411db1ea186fbd941d91c87c897d44443a8c674006&amp;ipo=images;" parent="1" vertex="1">
          <mxGeometry x="270" y="880" width="110" height="110" as="geometry" />
        </mxCell>
        <mxCell id="6U1nSSz8ILKlPygahHpY-19" value="" style="shape=image;imageAspect=0;aspect=fixed;verticalLabelPosition=bottom;verticalAlign=top;fontFamily=Verdana;strokeColor=default;image=https://external-content.duckduckgo.com/iu/?u=https%3A%2F%2Fcdn.freebiesupply.com%2Flogos%2Flarge%2F2x%2Fubuntu-icon-logo-png-transparent.png&amp;f=1&amp;nofb=1&amp;ipt=9aec932b07b4c54c36c28ff28f61d9e446ae4e70880df83b3f0d16d4d3a6bed2&amp;ipo=images;" parent="1" vertex="1">
          <mxGeometry x="258.27" y="882.0799999999999" width="34.73" height="34.6" as="geometry" />
        </mxCell>
        <mxCell id="6U1nSSz8ILKlPygahHpY-33" value="&amp;lt;/&amp;gt;" style="rounded=1;arcSize=5;fillColor=#0065FF;strokeColor=none;fontColor=#ffffff;align=center;verticalAlign=middle;whiteSpace=wrap;fontSize=10;fontStyle=1;html=1;sketch=0;fontFamily=Verdana;" parent="1" vertex="1">
          <mxGeometry x="258.27" y="1029.33" width="50" height="40" as="geometry" />
        </mxCell>
        <mxCell id="6U1nSSz8ILKlPygahHpY-48" value="&lt;font color=&quot;#000000&quot; style=&quot;font-size: 14px;&quot;&gt;&lt;b&gt;Lab&lt;/b&gt;&lt;/font&gt;" style="text;html=1;resizable=0;autosize=1;align=center;verticalAlign=middle;points=[];fillColor=none;strokeColor=none;rounded=0;fontFamily=Verdana;" parent="1" vertex="1">
          <mxGeometry x="534.8999999999999" y="861.9999999999999" width="50" height="30" as="geometry" />
        </mxCell>
        <mxCell id="9l7FFyi-YviBv7_dyPtq-48" value="&lt;font face=&quot;Verdana&quot;&gt;&lt;b&gt;TF State&lt;/b&gt;&lt;/font&gt;" style="text;html=1;resizable=0;autosize=1;align=center;verticalAlign=middle;points=[];fillColor=none;strokeColor=none;rounded=0;fontColor=#050505;" parent="1" vertex="1">
          <mxGeometry x="591.3" y="514" width="80" height="30" as="geometry" />
        </mxCell>
        <mxCell id="9l7FFyi-YviBv7_dyPtq-47" value="" style="shape=image;imageAspect=0;aspect=fixed;verticalLabelPosition=bottom;verticalAlign=top;strokeColor=default;image=https://external-content.duckduckgo.com/iu/?u=https%3A%2F%2Fi2.wp.com%2F2ninjas1blog.com%2Fwp-content%2Fuploads%2F2016%2F09%2Flogo_large-3e11db19-1.png&amp;f=1&amp;nofb=1&amp;ipt=3d022d50281ff976431da80701191ec0def9c0ddc7990fcdaae58c3494c109e3&amp;ipo=images;" parent="1" vertex="1">
          <mxGeometry x="604.8" y="540" width="50" height="50" as="geometry" />
        </mxCell>
        <mxCell id="dbgy21hbuP7iEMYif0pP-15" style="edgeStyle=orthogonalEdgeStyle;rounded=0;orthogonalLoop=1;jettySize=auto;html=1;exitX=0.5;exitY=0;exitDx=0;exitDy=0;fontColor=#000000;entryX=0.571;entryY=1;entryDx=0;entryDy=0;entryPerimeter=0;elbow=vertical;dashed=1;endArrow=oval;endFill=1;" parent="1" source="9l7FFyi-YviBv7_dyPtq-53" target="dbgy21hbuP7iEMYif0pP-5" edge="1">
          <mxGeometry relative="1" as="geometry">
            <mxPoint x="810" y="430" as="targetPoint" />
          </mxGeometry>
        </mxCell>
        <mxCell id="9l7FFyi-YviBv7_dyPtq-53" value="" style="shape=image;imageAspect=0;aspect=fixed;verticalLabelPosition=bottom;verticalAlign=top;strokeColor=default;image=https://external-content.duckduckgo.com/iu/?u=http%3A%2F%2Fpngimg.com%2Fuploads%2Fgithub%2Fgithub_PNG20.png&amp;f=1&amp;nofb=1&amp;ipt=be591aab47e5f11c7b5ee13e93c6353f2f1cd3941ab88886364057bae2867f05&amp;ipo=images;" parent="1" vertex="1">
          <mxGeometry x="702.51" y="500" width="67.49" height="61" as="geometry" />
        </mxCell>
        <mxCell id="dbgy21hbuP7iEMYif0pP-2" value="GitiHub Actions" style="swimlane;fontStyle=0;childLayout=stackLayout;horizontal=1;startSize=30;horizontalStack=0;resizeParent=1;resizeParentMax=0;resizeLast=0;collapsible=1;marginBottom=0;fillColor=#6a00ff;fontColor=#ffffff;strokeColor=#3700CC;" parent="1" vertex="1">
          <mxGeometry x="655.8" y="270" width="140" height="120" as="geometry" />
        </mxCell>
        <mxCell id="dbgy21hbuP7iEMYif0pP-3" value="Main (Merge)" style="text;strokeColor=none;fillColor=none;align=left;verticalAlign=middle;spacingLeft=4;spacingRight=4;overflow=hidden;points=[[0,0.5],[1,0.5]];portConstraint=eastwest;rotatable=0;" parent="dbgy21hbuP7iEMYif0pP-2" vertex="1">
          <mxGeometry y="30" width="140" height="30" as="geometry" />
        </mxCell>
        <mxCell id="dbgy21hbuP7iEMYif0pP-4" value="Main (PR)" style="text;strokeColor=none;fillColor=none;align=left;verticalAlign=middle;spacingLeft=4;spacingRight=4;overflow=hidden;points=[[0,0.5],[1,0.5]];portConstraint=eastwest;rotatable=0;" parent="dbgy21hbuP7iEMYif0pP-2" vertex="1">
          <mxGeometry y="60" width="140" height="30" as="geometry" />
        </mxCell>
        <mxCell id="dbgy21hbuP7iEMYif0pP-5" value="Branch (Push)" style="text;strokeColor=none;fillColor=none;align=left;verticalAlign=middle;spacingLeft=4;spacingRight=4;overflow=hidden;points=[[0,0.5],[1,0.5]];portConstraint=eastwest;rotatable=0;" parent="dbgy21hbuP7iEMYif0pP-2" vertex="1">
          <mxGeometry y="90" width="140" height="30" as="geometry" />
        </mxCell>
        <mxCell id="dbgy21hbuP7iEMYif0pP-11" value="" style="group" parent="1" vertex="1" connectable="0">
          <mxGeometry x="61.00000000000003" y="22" width="280" height="100" as="geometry" />
        </mxCell>
        <mxCell id="dbgy21hbuP7iEMYif0pP-12" value="&lt;b&gt;&lt;font color=&quot;#000000&quot;&gt;East&lt;/font&gt;&lt;/b&gt;" style="ellipse;shape=cloud;whiteSpace=wrap;html=1;fontFamily=Verdana;strokeColor=default;fillColor=#FFFFFF;" parent="dbgy21hbuP7iEMYif0pP-11" vertex="1">
          <mxGeometry width="61.85" height="40" as="geometry" />
        </mxCell>
        <mxCell id="dbgy21hbuP7iEMYif0pP-13" value="&lt;font color=&quot;#000000&quot;&gt;&lt;b&gt;West&lt;/b&gt;&lt;/font&gt;" style="ellipse;shape=cloud;whiteSpace=wrap;html=1;fontFamily=Verdana;strokeColor=default;fillColor=#FFFFFF;" parent="dbgy21hbuP7iEMYif0pP-11" vertex="1">
          <mxGeometry x="-0.4000000000000341" y="41" width="61.85" height="40" as="geometry" />
        </mxCell>
        <mxCell id="mZ7KAO63795X70oMhkg9-25" value="" style="rounded=1;whiteSpace=wrap;html=1;fontColor=#000000;fillColor=none;" parent="dbgy21hbuP7iEMYif0pP-11" vertex="1">
          <mxGeometry y="40" width="280" height="40" as="geometry" />
        </mxCell>
        <mxCell id="dbgy21hbuP7iEMYif0pP-16" value="&lt;font color=&quot;#ffffff&quot;&gt;&amp;nbsp;Doc: DevSecOps_Lab.drawiio&lt;br&gt;&lt;br&gt;&amp;nbsp;Description: Multi-Cloud Lab (for fun)&amp;nbsp;&lt;br&gt;&amp;nbsp;Author: Drew F. Sousa&lt;br&gt;&amp;nbsp;Data Classification: Public&lt;br&gt;&amp;nbsp;Last Update: 2022-10-23&lt;br&gt;&lt;/font&gt;" style="rounded=1;whiteSpace=wrap;html=1;fontColor=#000000;align=left;" parent="1" vertex="1">
          <mxGeometry x="591.3" y="980" width="250" height="100" as="geometry" />
        </mxCell>
        <mxCell id="dbgy21hbuP7iEMYif0pP-23" value="" style="shape=image;html=1;verticalAlign=top;verticalLabelPosition=bottom;labelBackgroundColor=#ffffff;imageAspect=0;aspect=fixed;image=https://cdn1.iconfinder.com/data/icons/unicons-line-vol-3/24/docker-128.png;fontColor=#FFFFFF;" parent="1" vertex="1">
          <mxGeometry x="180.01" y="19.5" width="40" height="40" as="geometry" />
        </mxCell>
        <mxCell id="dbgy21hbuP7iEMYif0pP-24" value="" style="shape=image;html=1;verticalAlign=top;verticalLabelPosition=bottom;labelBackgroundColor=#ffffff;imageAspect=0;aspect=fixed;image=https://cdn1.iconfinder.com/data/icons/unicons-line-vol-3/24/docker-128.png;fontColor=#FFFFFF;" parent="1" vertex="1">
          <mxGeometry x="180.01" y="63.5" width="40" height="40" as="geometry" />
        </mxCell>
        <mxCell id="dbgy21hbuP7iEMYif0pP-25" value="" style="shape=image;html=1;verticalAlign=top;verticalLabelPosition=bottom;labelBackgroundColor=#ffffff;imageAspect=0;aspect=fixed;image=https://cdn1.iconfinder.com/data/icons/unicons-line-vol-3/24/docker-128.png;fontColor=#FFFFFF;" parent="1" vertex="1">
          <mxGeometry x="222.81" y="63.5" width="40" height="40" as="geometry" />
        </mxCell>
        <mxCell id="dbgy21hbuP7iEMYif0pP-26" value="" style="shape=image;html=1;verticalAlign=top;verticalLabelPosition=bottom;labelBackgroundColor=#ffffff;imageAspect=0;aspect=fixed;image=https://cdn1.iconfinder.com/data/icons/unicons-line-vol-3/24/docker-128.png;fontColor=#FFFFFF;" parent="1" vertex="1">
          <mxGeometry x="266" y="64.5" width="40" height="40" as="geometry" />
        </mxCell>
        <mxCell id="dbgy21hbuP7iEMYif0pP-28" value="" style="shape=image;html=1;verticalAlign=top;verticalLabelPosition=bottom;labelBackgroundColor=#ffffff;imageAspect=0;aspect=fixed;image=https://cdn1.iconfinder.com/data/icons/unicons-line-vol-3/24/docker-128.png;fontColor=#FFFFFF;" parent="1" vertex="1">
          <mxGeometry x="222.17000000000002" y="19.5" width="40" height="40" as="geometry" />
        </mxCell>
        <mxCell id="dbgy21hbuP7iEMYif0pP-29" value="" style="shape=image;html=1;verticalAlign=top;verticalLabelPosition=bottom;labelBackgroundColor=#ffffff;imageAspect=0;aspect=fixed;image=https://cdn1.iconfinder.com/data/icons/unicons-line-vol-3/24/docker-128.png;fontColor=#FFFFFF;" parent="1" vertex="1">
          <mxGeometry x="264.81" y="19.5" width="40" height="40" as="geometry" />
        </mxCell>
        <mxCell id="dbgy21hbuP7iEMYif0pP-31" value="" style="group" parent="1" vertex="1" connectable="0">
          <mxGeometry x="92.88000000000002" y="138" width="380" height="230" as="geometry" />
        </mxCell>
        <mxCell id="dbgy21hbuP7iEMYif0pP-32" value="&lt;b&gt;&lt;font color=&quot;#000000&quot;&gt;East&lt;/font&gt;&lt;/b&gt;" style="ellipse;shape=cloud;whiteSpace=wrap;html=1;fontFamily=Verdana;strokeColor=default;fillColor=#FFFFFF;" parent="dbgy21hbuP7iEMYif0pP-31" vertex="1">
          <mxGeometry width="61.85" height="40" as="geometry" />
        </mxCell>
        <mxCell id="dbgy21hbuP7iEMYif0pP-33" value="&lt;font color=&quot;#000000&quot;&gt;&lt;b&gt;West&lt;/b&gt;&lt;/font&gt;" style="ellipse;shape=cloud;whiteSpace=wrap;html=1;fontFamily=Verdana;strokeColor=default;fillColor=#FFFFFF;" parent="dbgy21hbuP7iEMYif0pP-31" vertex="1">
          <mxGeometry x="-0.4000000000000341" y="41" width="61.85" height="40" as="geometry" />
        </mxCell>
        <mxCell id="dm04dploUD2AeDu6VpOO-8" value="" style="rounded=1;whiteSpace=wrap;html=1;opacity=50;fillColor=#4A4A4A;strokeColor=none;glass=0;" parent="dbgy21hbuP7iEMYif0pP-31" vertex="1">
          <mxGeometry x="-50" y="-10" width="430" height="240" as="geometry" />
        </mxCell>
        <mxCell id="dbgy21hbuP7iEMYif0pP-40" value="" style="group" parent="1" vertex="1" connectable="0">
          <mxGeometry x="116.00000000000003" y="258" width="65.44999999999999" height="80" as="geometry" />
        </mxCell>
        <mxCell id="dbgy21hbuP7iEMYif0pP-41" value="&lt;b&gt;&lt;font color=&quot;#000000&quot;&gt;East&lt;/font&gt;&lt;/b&gt;" style="ellipse;shape=cloud;whiteSpace=wrap;html=1;fontFamily=Verdana;strokeColor=default;fillColor=#FFFFFF;" parent="dbgy21hbuP7iEMYif0pP-40" vertex="1">
          <mxGeometry width="61.85" height="40" as="geometry" />
        </mxCell>
        <mxCell id="dbgy21hbuP7iEMYif0pP-42" value="&lt;font color=&quot;#000000&quot;&gt;&lt;b&gt;West&lt;/b&gt;&lt;/font&gt;" style="ellipse;shape=cloud;whiteSpace=wrap;html=1;fontFamily=Verdana;strokeColor=default;fillColor=#FFFFFF;" parent="dbgy21hbuP7iEMYif0pP-40" vertex="1">
          <mxGeometry x="-0.4000000000000341" y="41" width="61.85" height="40" as="geometry" />
        </mxCell>
        <mxCell id="dbgy21hbuP7iEMYif0pP-57" value="" style="shape=image;imageAspect=0;aspect=fixed;verticalLabelPosition=bottom;verticalAlign=top;fontColor=#FFFFFF;image=https://external-content.duckduckgo.com/iu/?u=https%3A%2F%2Fi0.wp.com%2Funaaldia.hispasec.com%2Fwp-content%2Fuploads%2F2019%2F04%2Fcropped-Kubernetes_Logo-1.png%3Ffit%3D1200%252C675%26ssl%3D1&amp;f=1&amp;nofb=1&amp;ipt=7912373942eb213dd3228f245f7cac2c3d62bc810f21fda221ffa9d1d1c87cf2&amp;ipo=images;" parent="1" vertex="1">
          <mxGeometry x="126.32999999999998" y="25.5" width="49.69" height="28" as="geometry" />
        </mxCell>
        <mxCell id="dbgy21hbuP7iEMYif0pP-58" value="" style="shape=image;imageAspect=0;aspect=fixed;verticalLabelPosition=bottom;verticalAlign=top;fontColor=#FFFFFF;image=https://external-content.duckduckgo.com/iu/?u=https%3A%2F%2Fi0.wp.com%2Funaaldia.hispasec.com%2Fwp-content%2Fuploads%2F2019%2F04%2Fcropped-Kubernetes_Logo-1.png%3Ffit%3D1200%252C675%26ssl%3D1&amp;f=1&amp;nofb=1&amp;ipt=7912373942eb213dd3228f245f7cac2c3d62bc810f21fda221ffa9d1d1c87cf2&amp;ipo=images;" parent="1" vertex="1">
          <mxGeometry x="126.44999999999999" y="69.5" width="49.69" height="28" as="geometry" />
        </mxCell>
        <mxCell id="dbgy21hbuP7iEMYif0pP-61" value="" style="shape=image;html=1;verticalAlign=top;verticalLabelPosition=bottom;labelBackgroundColor=#ffffff;imageAspect=0;aspect=fixed;image=https://cdn1.iconfinder.com/data/icons/unicons-line-vol-3/24/docker-128.png;fontColor=#FFFFFF;" parent="1" vertex="1">
          <mxGeometry x="202.48" y="135.5" width="40" height="40" as="geometry" />
        </mxCell>
        <mxCell id="dbgy21hbuP7iEMYif0pP-62" value="" style="shape=image;html=1;verticalAlign=top;verticalLabelPosition=bottom;labelBackgroundColor=#ffffff;imageAspect=0;aspect=fixed;image=https://cdn1.iconfinder.com/data/icons/unicons-line-vol-3/24/docker-128.png;fontColor=#FFFFFF;" parent="1" vertex="1">
          <mxGeometry x="202.48" y="179.5" width="40" height="40" as="geometry" />
        </mxCell>
        <mxCell id="dbgy21hbuP7iEMYif0pP-63" value="" style="shape=image;html=1;verticalAlign=top;verticalLabelPosition=bottom;labelBackgroundColor=#ffffff;imageAspect=0;aspect=fixed;image=https://cdn1.iconfinder.com/data/icons/unicons-line-vol-3/24/docker-128.png;fontColor=#FFFFFF;" parent="1" vertex="1">
          <mxGeometry x="245.28" y="179.5" width="40" height="40" as="geometry" />
        </mxCell>
        <mxCell id="dbgy21hbuP7iEMYif0pP-64" value="" style="shape=image;html=1;verticalAlign=top;verticalLabelPosition=bottom;labelBackgroundColor=#ffffff;imageAspect=0;aspect=fixed;image=https://cdn1.iconfinder.com/data/icons/unicons-line-vol-3/24/docker-128.png;fontColor=#FFFFFF;" parent="1" vertex="1">
          <mxGeometry x="288.47" y="180.5" width="40" height="40" as="geometry" />
        </mxCell>
        <mxCell id="dbgy21hbuP7iEMYif0pP-65" value="" style="shape=image;html=1;verticalAlign=top;verticalLabelPosition=bottom;labelBackgroundColor=#ffffff;imageAspect=0;aspect=fixed;image=https://cdn1.iconfinder.com/data/icons/unicons-line-vol-3/24/docker-128.png;fontColor=#FFFFFF;" parent="1" vertex="1">
          <mxGeometry x="244.64000000000001" y="135.5" width="40" height="40" as="geometry" />
        </mxCell>
        <mxCell id="dbgy21hbuP7iEMYif0pP-66" value="" style="shape=image;html=1;verticalAlign=top;verticalLabelPosition=bottom;labelBackgroundColor=#ffffff;imageAspect=0;aspect=fixed;image=https://cdn1.iconfinder.com/data/icons/unicons-line-vol-3/24/docker-128.png;fontColor=#FFFFFF;" parent="1" vertex="1">
          <mxGeometry x="287.28000000000003" y="135.5" width="40" height="40" as="geometry" />
        </mxCell>
        <mxCell id="dbgy21hbuP7iEMYif0pP-67" value="" style="shape=image;imageAspect=0;aspect=fixed;verticalLabelPosition=bottom;verticalAlign=top;fontColor=#FFFFFF;image=https://external-content.duckduckgo.com/iu/?u=https%3A%2F%2Fi0.wp.com%2Funaaldia.hispasec.com%2Fwp-content%2Fuploads%2F2019%2F04%2Fcropped-Kubernetes_Logo-1.png%3Ffit%3D1200%252C675%26ssl%3D1&amp;f=1&amp;nofb=1&amp;ipt=7912373942eb213dd3228f245f7cac2c3d62bc810f21fda221ffa9d1d1c87cf2&amp;ipo=images;" parent="1" vertex="1">
          <mxGeometry x="148.79999999999998" y="141.5" width="49.69" height="28" as="geometry" />
        </mxCell>
        <mxCell id="dbgy21hbuP7iEMYif0pP-68" value="" style="shape=image;imageAspect=0;aspect=fixed;verticalLabelPosition=bottom;verticalAlign=top;fontColor=#FFFFFF;image=https://external-content.duckduckgo.com/iu/?u=https%3A%2F%2Fi0.wp.com%2Funaaldia.hispasec.com%2Fwp-content%2Fuploads%2F2019%2F04%2Fcropped-Kubernetes_Logo-1.png%3Ffit%3D1200%252C675%26ssl%3D1&amp;f=1&amp;nofb=1&amp;ipt=7912373942eb213dd3228f245f7cac2c3d62bc810f21fda221ffa9d1d1c87cf2&amp;ipo=images;" parent="1" vertex="1">
          <mxGeometry x="148.92" y="185.5" width="49.69" height="28" as="geometry" />
        </mxCell>
        <mxCell id="dbgy21hbuP7iEMYif0pP-69" value="" style="shape=image;html=1;verticalAlign=top;verticalLabelPosition=bottom;labelBackgroundColor=#ffffff;imageAspect=0;aspect=fixed;image=https://cdn1.iconfinder.com/data/icons/unicons-line-vol-3/24/docker-128.png;fontColor=#FFFFFF;" parent="1" vertex="1">
          <mxGeometry x="227.48000000000002" y="258" width="40" height="40" as="geometry" />
        </mxCell>
        <mxCell id="dbgy21hbuP7iEMYif0pP-70" value="" style="shape=image;html=1;verticalAlign=top;verticalLabelPosition=bottom;labelBackgroundColor=#ffffff;imageAspect=0;aspect=fixed;image=https://cdn1.iconfinder.com/data/icons/unicons-line-vol-3/24/docker-128.png;fontColor=#FFFFFF;" parent="1" vertex="1">
          <mxGeometry x="227.48000000000002" y="302" width="40" height="40" as="geometry" />
        </mxCell>
        <mxCell id="dbgy21hbuP7iEMYif0pP-71" value="" style="shape=image;html=1;verticalAlign=top;verticalLabelPosition=bottom;labelBackgroundColor=#ffffff;imageAspect=0;aspect=fixed;image=https://cdn1.iconfinder.com/data/icons/unicons-line-vol-3/24/docker-128.png;fontColor=#FFFFFF;" parent="1" vertex="1">
          <mxGeometry x="270.28" y="302" width="40" height="40" as="geometry" />
        </mxCell>
        <mxCell id="dbgy21hbuP7iEMYif0pP-72" value="" style="shape=image;html=1;verticalAlign=top;verticalLabelPosition=bottom;labelBackgroundColor=#ffffff;imageAspect=0;aspect=fixed;image=https://cdn1.iconfinder.com/data/icons/unicons-line-vol-3/24/docker-128.png;fontColor=#FFFFFF;" parent="1" vertex="1">
          <mxGeometry x="313.47" y="303" width="40" height="40" as="geometry" />
        </mxCell>
        <mxCell id="dbgy21hbuP7iEMYif0pP-73" value="" style="shape=image;html=1;verticalAlign=top;verticalLabelPosition=bottom;labelBackgroundColor=#ffffff;imageAspect=0;aspect=fixed;image=https://cdn1.iconfinder.com/data/icons/unicons-line-vol-3/24/docker-128.png;fontColor=#FFFFFF;" parent="1" vertex="1">
          <mxGeometry x="269.64" y="258" width="40" height="40" as="geometry" />
        </mxCell>
        <mxCell id="dbgy21hbuP7iEMYif0pP-74" value="" style="shape=image;html=1;verticalAlign=top;verticalLabelPosition=bottom;labelBackgroundColor=#ffffff;imageAspect=0;aspect=fixed;image=https://cdn1.iconfinder.com/data/icons/unicons-line-vol-3/24/docker-128.png;fontColor=#FFFFFF;" parent="1" vertex="1">
          <mxGeometry x="312.28" y="258" width="40" height="40" as="geometry" />
        </mxCell>
        <mxCell id="dbgy21hbuP7iEMYif0pP-75" value="" style="shape=image;imageAspect=0;aspect=fixed;verticalLabelPosition=bottom;verticalAlign=top;fontColor=#FFFFFF;image=https://external-content.duckduckgo.com/iu/?u=https%3A%2F%2Fi0.wp.com%2Funaaldia.hispasec.com%2Fwp-content%2Fuploads%2F2019%2F04%2Fcropped-Kubernetes_Logo-1.png%3Ffit%3D1200%252C675%26ssl%3D1&amp;f=1&amp;nofb=1&amp;ipt=7912373942eb213dd3228f245f7cac2c3d62bc810f21fda221ffa9d1d1c87cf2&amp;ipo=images;" parent="1" vertex="1">
          <mxGeometry x="173.79999999999998" y="264" width="49.69" height="28" as="geometry" />
        </mxCell>
        <mxCell id="dbgy21hbuP7iEMYif0pP-76" value="" style="shape=image;imageAspect=0;aspect=fixed;verticalLabelPosition=bottom;verticalAlign=top;fontColor=#FFFFFF;image=https://external-content.duckduckgo.com/iu/?u=https%3A%2F%2Fi0.wp.com%2Funaaldia.hispasec.com%2Fwp-content%2Fuploads%2F2019%2F04%2Fcropped-Kubernetes_Logo-1.png%3Ffit%3D1200%252C675%26ssl%3D1&amp;f=1&amp;nofb=1&amp;ipt=7912373942eb213dd3228f245f7cac2c3d62bc810f21fda221ffa9d1d1c87cf2&amp;ipo=images;" parent="1" vertex="1">
          <mxGeometry x="173.92" y="308" width="49.69" height="28" as="geometry" />
        </mxCell>
        <mxCell id="dbgy21hbuP7iEMYif0pP-84" value="" style="endArrow=classic;html=1;rounded=0;dashed=1;fontColor=#FFFFFF;elbow=vertical;entryX=0.683;entryY=0.007;entryDx=0;entryDy=0;entryPerimeter=0;exitX=0;exitY=0.5;exitDx=0;exitDy=0;" parent="1" source="dbgy21hbuP7iEMYif0pP-3" target="dbgy21hbuP7iEMYif0pP-78" edge="1">
          <mxGeometry width="50" height="50" relative="1" as="geometry">
            <mxPoint x="220" y="570" as="sourcePoint" />
            <mxPoint x="270" y="520" as="targetPoint" />
            <Array as="points">
              <mxPoint x="630" y="315" />
            </Array>
          </mxGeometry>
        </mxCell>
        <mxCell id="mZ7KAO63795X70oMhkg9-21" value="GitHub Action" style="edgeLabel;html=1;align=center;verticalAlign=middle;resizable=0;points=[];fontColor=#FFFFFF;" parent="dbgy21hbuP7iEMYif0pP-84" vertex="1" connectable="0">
          <mxGeometry x="-0.0059" y="-2" relative="1" as="geometry">
            <mxPoint x="50" y="-66" as="offset" />
          </mxGeometry>
        </mxCell>
        <mxCell id="dbgy21hbuP7iEMYif0pP-87" value="" style="endArrow=none;html=1;rounded=0;startArrow=none;dashed=1;" parent="1" source="9l7FFyi-YviBv7_dyPtq-15" target="9l7FFyi-YviBv7_dyPtq-24" edge="1">
          <mxGeometry width="50" height="50" relative="1" as="geometry">
            <mxPoint x="320.03999999999996" y="940.0500000000002" as="sourcePoint" />
            <mxPoint x="120" y="927.7638344760039" as="targetPoint" />
            <Array as="points" />
          </mxGeometry>
        </mxCell>
        <mxCell id="dbgy21hbuP7iEMYif0pP-89" value="" style="sketch=0;aspect=fixed;html=1;points=[];align=center;image;fontSize=12;image=img/lib/mscae/Person.svg;fontColor=#FFFFFF;" parent="1" vertex="1">
          <mxGeometry x="601.3" y="25" width="29.6" height="40" as="geometry" />
        </mxCell>
        <mxCell id="dbgy21hbuP7iEMYif0pP-93" value="" style="endArrow=classic;html=1;rounded=0;dashed=1;fontColor=#FFFFFF;elbow=vertical;entryX=1;entryY=0.25;entryDx=0;entryDy=0;entryPerimeter=0;exitX=0.1;exitY=0.96;exitDx=0;exitDy=0;exitPerimeter=0;" parent="1" source="dbgy21hbuP7iEMYif0pP-89" target="mZ7KAO63795X70oMhkg9-7" edge="1">
          <mxGeometry width="50" height="50" relative="1" as="geometry">
            <mxPoint x="720" y="325" as="sourcePoint" />
            <mxPoint x="456.28" y="356.5" as="targetPoint" />
            <Array as="points">
              <mxPoint x="530" y="160" />
            </Array>
          </mxGeometry>
        </mxCell>
        <mxCell id="dbgy21hbuP7iEMYif0pP-94" value="" style="endArrow=classic;html=1;rounded=0;dashed=1;fontColor=#FFFFFF;elbow=vertical;exitX=0.159;exitY=0.975;exitDx=0;exitDy=0;exitPerimeter=0;" parent="1" source="dbgy21hbuP7iEMYif0pP-89" target="mZ7KAO63795X70oMhkg9-6" edge="1">
          <mxGeometry width="50" height="50" relative="1" as="geometry">
            <mxPoint x="600" y="70" as="sourcePoint" />
            <mxPoint x="391.50789999999984" y="203" as="targetPoint" />
            <Array as="points" />
          </mxGeometry>
        </mxCell>
        <mxCell id="dbgy21hbuP7iEMYif0pP-95" value="" style="endArrow=classic;html=1;rounded=0;dashed=1;fontColor=#FFFFFF;elbow=vertical;exitX=0.057;exitY=1;exitDx=0;exitDy=0;exitPerimeter=0;entryX=1;entryY=0.5;entryDx=0;entryDy=0;entryPerimeter=0;" parent="1" source="dbgy21hbuP7iEMYif0pP-89" target="mZ7KAO63795X70oMhkg9-4" edge="1">
          <mxGeometry width="50" height="50" relative="1" as="geometry">
            <mxPoint x="640" y="80" as="sourcePoint" />
            <mxPoint x="450" y="62" as="targetPoint" />
            <Array as="points" />
          </mxGeometry>
        </mxCell>
        <mxCell id="mZ7KAO63795X70oMhkg9-4" value="" style="sketch=0;points=[[0,0,0],[0.25,0,0],[0.5,0,0],[0.75,0,0],[1,0,0],[0,1,0],[0.25,1,0],[0.5,1,0],[0.75,1,0],[1,1,0],[0,0.25,0],[0,0.5,0],[0,0.75,0],[1,0.25,0],[1,0.5,0],[1,0.75,0]];outlineConnect=0;fontColor=#232F3E;gradientColor=#F54749;gradientDirection=north;fillColor=#C7131F;strokeColor=#ffffff;dashed=0;verticalLabelPosition=bottom;verticalAlign=top;align=center;html=1;fontSize=12;fontStyle=0;aspect=fixed;shape=mxgraph.aws4.resourceIcon;resIcon=mxgraph.aws4.network_firewall;" parent="1" vertex="1">
          <mxGeometry x="410.65999999999997" y="43" width="38" height="38" as="geometry" />
        </mxCell>
        <mxCell id="mZ7KAO63795X70oMhkg9-6" value="" style="sketch=0;points=[[0,0,0],[0.25,0,0],[0.5,0,0],[0.75,0,0],[1,0,0],[0,1,0],[0.25,1,0],[0.5,1,0],[0.75,1,0],[1,1,0],[0,0.25,0],[0,0.5,0],[0,0.75,0],[1,0.25,0],[1,0.5,0],[1,0.75,0]];outlineConnect=0;fontColor=#232F3E;gradientColor=#F54749;gradientDirection=north;fillColor=#C7131F;strokeColor=#ffffff;dashed=0;verticalLabelPosition=bottom;verticalAlign=top;align=center;html=1;fontSize=12;fontStyle=0;aspect=fixed;shape=mxgraph.aws4.resourceIcon;resIcon=mxgraph.aws4.network_firewall;" parent="1" vertex="1">
          <mxGeometry x="408" y="157" width="38" height="38" as="geometry" />
        </mxCell>
        <mxCell id="mZ7KAO63795X70oMhkg9-7" value="" style="sketch=0;points=[[0,0,0],[0.25,0,0],[0.5,0,0],[0.75,0,0],[1,0,0],[0,1,0],[0.25,1,0],[0.5,1,0],[0.75,1,0],[1,1,0],[0,0.25,0],[0,0.5,0],[0,0.75,0],[1,0.25,0],[1,0.5,0],[1,0.75,0]];outlineConnect=0;fontColor=#232F3E;gradientColor=#F54749;gradientDirection=north;fillColor=#C7131F;strokeColor=#ffffff;dashed=0;verticalLabelPosition=bottom;verticalAlign=top;align=center;html=1;fontSize=12;fontStyle=0;aspect=fixed;shape=mxgraph.aws4.resourceIcon;resIcon=mxgraph.aws4.network_firewall;" parent="1" vertex="1">
          <mxGeometry x="406" y="277" width="38" height="38" as="geometry" />
        </mxCell>
        <mxCell id="mZ7KAO63795X70oMhkg9-9" value="" style="outlineConnect=0;dashed=0;verticalLabelPosition=bottom;verticalAlign=top;align=center;html=1;shape=mxgraph.aws3.management_console;fillColor=#F58534;gradientColor=none;" parent="1" vertex="1">
          <mxGeometry x="592.3" y="56" width="18.7" height="14" as="geometry" />
        </mxCell>
        <mxCell id="mZ7KAO63795X70oMhkg9-13" value="" style="sketch=0;points=[[0,0,0],[0.25,0,0],[0.5,0,0],[0.75,0,0],[1,0,0],[0,1,0],[0.25,1,0],[0.5,1,0],[0.75,1,0],[1,1,0],[0,0.25,0],[0,0.5,0],[0,0.75,0],[1,0.25,0],[1,0.5,0],[1,0.75,0]];outlineConnect=0;fontColor=#232F3E;gradientColor=#F54749;gradientDirection=north;fillColor=#C7131F;strokeColor=#ffffff;dashed=0;verticalLabelPosition=bottom;verticalAlign=top;align=center;html=1;fontSize=12;fontStyle=0;aspect=fixed;shape=mxgraph.aws4.resourceIcon;resIcon=mxgraph.aws4.waf;" parent="1" vertex="1">
          <mxGeometry x="367.64" y="45" width="34" height="34" as="geometry" />
        </mxCell>
        <mxCell id="mZ7KAO63795X70oMhkg9-14" value="" style="sketch=0;points=[[0,0,0],[0.25,0,0],[0.5,0,0],[0.75,0,0],[1,0,0],[0,1,0],[0.25,1,0],[0.5,1,0],[0.75,1,0],[1,1,0],[0,0.25,0],[0,0.5,0],[0,0.75,0],[1,0.25,0],[1,0.5,0],[1,0.75,0]];outlineConnect=0;fontColor=#232F3E;gradientColor=#F54749;gradientDirection=north;fillColor=#C7131F;strokeColor=#ffffff;dashed=0;verticalLabelPosition=bottom;verticalAlign=top;align=center;html=1;fontSize=12;fontStyle=0;aspect=fixed;shape=mxgraph.aws4.resourceIcon;resIcon=mxgraph.aws4.waf;" parent="1" vertex="1">
          <mxGeometry x="366" y="159" width="34" height="34" as="geometry" />
        </mxCell>
        <mxCell id="mZ7KAO63795X70oMhkg9-15" value="" style="sketch=0;points=[[0,0,0],[0.25,0,0],[0.5,0,0],[0.75,0,0],[1,0,0],[0,1,0],[0.25,1,0],[0.5,1,0],[0.75,1,0],[1,1,0],[0,0.25,0],[0,0.5,0],[0,0.75,0],[1,0.25,0],[1,0.5,0],[1,0.75,0]];outlineConnect=0;fontColor=#232F3E;gradientColor=#F54749;gradientDirection=north;fillColor=#C7131F;strokeColor=#ffffff;dashed=0;verticalLabelPosition=bottom;verticalAlign=top;align=center;html=1;fontSize=12;fontStyle=0;aspect=fixed;shape=mxgraph.aws4.resourceIcon;resIcon=mxgraph.aws4.waf;" parent="1" vertex="1">
          <mxGeometry x="365" y="279" width="34" height="34" as="geometry" />
        </mxCell>
        <mxCell id="mZ7KAO63795X70oMhkg9-19" value="" style="endArrow=none;html=1;rounded=0;dashed=1;fontColor=#FFFFFF;elbow=vertical;entryX=0.2;entryY=1;entryDx=0;entryDy=0;entryPerimeter=0;endFill=0;" parent="1" source="6U1nSSz8ILKlPygahHpY-48" target="mZ7KAO63795X70oMhkg9-12" edge="1">
          <mxGeometry width="50" height="50" relative="1" as="geometry">
            <mxPoint x="610" y="200" as="sourcePoint" />
            <mxPoint x="280" y="510" as="targetPoint" />
            <Array as="points">
              <mxPoint x="530" y="800" />
              <mxPoint x="530" y="690" />
              <mxPoint x="530" y="350" />
              <mxPoint x="530" y="180" />
              <mxPoint x="786" y="180" />
            </Array>
          </mxGeometry>
        </mxCell>
        <mxCell id="mZ7KAO63795X70oMhkg9-20" value="&lt;font color=&quot;#ffffff&quot;&gt;VPN&lt;/font&gt;" style="edgeLabel;html=1;align=center;verticalAlign=middle;resizable=0;points=[];fontColor=#000000;" parent="mZ7KAO63795X70oMhkg9-19" vertex="1" connectable="0">
          <mxGeometry x="0.381" y="2" relative="1" as="geometry">
            <mxPoint as="offset" />
          </mxGeometry>
        </mxCell>
        <mxCell id="mZ7KAO63795X70oMhkg9-23" value="" style="group" parent="1" vertex="1" connectable="0">
          <mxGeometry x="418" y="536" width="90.81999999999994" height="95" as="geometry" />
        </mxCell>
        <mxCell id="dbgy21hbuP7iEMYif0pP-78" value="" style="rounded=0;whiteSpace=wrap;html=1;fontFamily=Verdana;strokeColor=default;fillColor=#90F0C0;" parent="mZ7KAO63795X70oMhkg9-23" vertex="1">
          <mxGeometry width="90" height="95" as="geometry" />
        </mxCell>
        <mxCell id="9l7FFyi-YviBv7_dyPtq-18" value="" style="shape=image;imageAspect=0;aspect=fixed;verticalLabelPosition=bottom;verticalAlign=top;image=https://external-content.duckduckgo.com/iu/?u=https%3A%2F%2Fs3-ap-southeast-2.amazonaws.com%2Fcontent-prod-529546285894%2F2020%2F03%2Ftf.png&amp;f=1&amp;nofb=1&amp;ipt=54c1d0f80d5d8a83f49d89845a061974051dca575a982b8f67ec5b433a555747&amp;ipo=images;" parent="mZ7KAO63795X70oMhkg9-23" vertex="1">
          <mxGeometry x="14.639999999999986" width="62.36" height="62.24" as="geometry" />
        </mxCell>
        <mxCell id="mZ7KAO63795X70oMhkg9-22" value="&lt;font color=&quot;#000000&quot;&gt;Container&lt;br&gt;(Ephemeral)&lt;/font&gt;" style="text;html=1;resizable=0;autosize=1;align=center;verticalAlign=middle;points=[];fillColor=none;strokeColor=none;rounded=0;fontColor=#FFFFFF;" parent="mZ7KAO63795X70oMhkg9-23" vertex="1">
          <mxGeometry x="0.8199999999999932" y="54" width="90" height="40" as="geometry" />
        </mxCell>
        <mxCell id="mZ7KAO63795X70oMhkg9-24" value="Sample App" style="edgeLabel;html=1;align=center;verticalAlign=middle;resizable=0;points=[];fontColor=#FFFFFF;" parent="1" vertex="1" connectable="0">
          <mxGeometry x="631.2978200586181" y="78.99513606031513" as="geometry" />
        </mxCell>
        <mxCell id="mZ7KAO63795X70oMhkg9-27" value="" style="rounded=1;whiteSpace=wrap;html=1;fontColor=#000000;fillColor=none;" parent="1" vertex="1">
          <mxGeometry x="61.00000000000003" y="20" width="280" height="40" as="geometry" />
        </mxCell>
        <mxCell id="mZ7KAO63795X70oMhkg9-28" value="" style="endArrow=none;html=1;rounded=0;startArrow=none;exitX=0.5;exitY=1;exitDx=0;exitDy=0;" parent="1" source="9l7FFyi-YviBv7_dyPtq-27" edge="1">
          <mxGeometry width="50" height="50" relative="1" as="geometry">
            <mxPoint x="764" y="643" as="sourcePoint" />
            <mxPoint x="590" y="880" as="targetPoint" />
            <Array as="points">
              <mxPoint x="736" y="880" />
            </Array>
          </mxGeometry>
        </mxCell>
        <mxCell id="9l7FFyi-YviBv7_dyPtq-27" value="" style="outlineConnect=0;dashed=0;verticalLabelPosition=bottom;verticalAlign=top;align=center;html=1;shape=mxgraph.aws3.vpn_connection;fillColor=#F58534;gradientColor=none;strokeColor=default;" parent="1" vertex="1">
          <mxGeometry x="719.5" y="804" width="33.5" height="26" as="geometry" />
        </mxCell>
        <mxCell id="mZ7KAO63795X70oMhkg9-30" value="" style="endArrow=none;html=1;rounded=0;startArrow=none;exitX=0.5;exitY=1;exitDx=0;exitDy=0;" parent="1" source="9l7FFyi-YviBv7_dyPtq-53" edge="1">
          <mxGeometry width="50" height="50" relative="1" as="geometry">
            <mxPoint x="736.2549999999999" y="561" as="sourcePoint" />
            <mxPoint x="736" y="800" as="targetPoint" />
            <Array as="points" />
          </mxGeometry>
        </mxCell>
        <mxCell id="mZ7KAO63795X70oMhkg9-31" value="Code&lt;br&gt;Pull/Push" style="edgeLabel;html=1;align=center;verticalAlign=middle;resizable=0;points=[];fontColor=#FFFFFF;" parent="mZ7KAO63795X70oMhkg9-30" vertex="1" connectable="0">
          <mxGeometry x="-0.2127" y="-2" relative="1" as="geometry">
            <mxPoint as="offset" />
          </mxGeometry>
        </mxCell>
        <mxCell id="mZ7KAO63795X70oMhkg9-12" value="" style="outlineConnect=0;dashed=0;verticalLabelPosition=bottom;verticalAlign=top;align=center;html=1;shape=mxgraph.aws3.vpn_connection;fillColor=#F58534;gradientColor=none;strokeColor=default;" parent="1" vertex="1">
          <mxGeometry x="780" y="77.5" width="30" height="20" as="geometry" />
        </mxCell>
        <mxCell id="dm04dploUD2AeDu6VpOO-3" value="" style="endArrow=none;html=1;rounded=0;exitX=1;exitY=0.75;exitDx=0;exitDy=0;" parent="1" source="dbgy21hbuP7iEMYif0pP-50" target="mZ7KAO63795X70oMhkg9-12" edge="1">
          <mxGeometry width="50" height="50" relative="1" as="geometry">
            <mxPoint x="430" y="86.5" as="sourcePoint" />
            <mxPoint x="480" y="540" as="targetPoint" />
            <Array as="points">
              <mxPoint x="470" y="87" />
            </Array>
          </mxGeometry>
        </mxCell>
        <mxCell id="dm04dploUD2AeDu6VpOO-6" style="edgeStyle=orthogonalEdgeStyle;rounded=0;orthogonalLoop=1;jettySize=auto;html=1;entryX=0;entryY=0.5;entryDx=0;entryDy=0;endArrow=none;endFill=0;" parent="1" source="dm04dploUD2AeDu6VpOO-4" target="dbgy21hbuP7iEMYif0pP-50" edge="1">
          <mxGeometry relative="1" as="geometry">
            <mxPoint x="20" y="150" as="targetPoint" />
            <mxPoint x="29" y="470" as="sourcePoint" />
            <Array as="points">
              <mxPoint x="29" y="150" />
              <mxPoint x="16" y="150" />
              <mxPoint x="16" y="62" />
            </Array>
          </mxGeometry>
        </mxCell>
        <mxCell id="dm04dploUD2AeDu6VpOO-7" style="edgeStyle=orthogonalEdgeStyle;rounded=0;orthogonalLoop=1;jettySize=auto;html=1;exitX=0.5;exitY=1;exitDx=0;exitDy=0;exitPerimeter=0;entryX=0;entryY=0.5;entryDx=0;entryDy=0;strokeColor=default;endArrow=none;endFill=0;" parent="1" source="dm04dploUD2AeDu6VpOO-4" target="dbgy21hbuP7iEMYif0pP-78" edge="1">
          <mxGeometry relative="1" as="geometry">
            <mxPoint x="430" y="590" as="targetPoint" />
            <Array as="points">
              <mxPoint x="29" y="580" />
              <mxPoint x="418" y="580" />
            </Array>
          </mxGeometry>
        </mxCell>
        <mxCell id="dm04dploUD2AeDu6VpOO-4" value="" style="outlineConnect=0;dashed=0;verticalLabelPosition=bottom;verticalAlign=top;align=center;html=1;shape=mxgraph.aws3.vpn_connection;fillColor=#F58534;gradientColor=none;strokeColor=default;" parent="1" vertex="1">
          <mxGeometry x="13.800000000000011" y="510" width="30" height="20" as="geometry" />
        </mxCell>
        <mxCell id="u_6y3rpUzt2QEVfDSE66-1" value="" style="endArrow=none;dashed=1;html=1;rounded=0;" edge="1" parent="1">
          <mxGeometry width="50" height="50" relative="1" as="geometry">
            <mxPoint x="400" y="610" as="sourcePoint" />
            <mxPoint x="450" y="560" as="targetPoint" />
          </mxGeometry>
        </mxCell>
      </root>
    </mxGraphModel>
  </diagram>
</mxfile>
